<svg xmlns="http://www.w3.org/2000/svg" viewBox="0 0 1400 800" width="1400" height="800" role="img">
  <defs>
  <linearGradient id="sky" x1="0" y1="0" x2="0.4" y2="1">
    <stop offset="0%" stop-color="#f2f4f9" />
    <stop offset="55%" stop-color="#d0d7e6" />
    <stop offset="100%" stop-color="#aeb7cc" />
  </linearGradient>
  <linearGradient id="night" x1="0" y1="0" x2="0.6" y2="1">
    <stop offset="0%" stop-color="#1b1a45" />
    <stop offset="55%" stop-color="#2c2566" />
    <stop offset="100%" stop-color="#101433" />
  </linearGradient>
  <linearGradient id="tunnel" x1="0" y1="0" x2="0" y2="1">
    <stop offset="0%" stop-color="#3a3564" />
    <stop offset="100%" stop-color="#15132e" />
  </linearGradient>
  <linearGradient id="warm" x1="0" y1="0" x2="0.5" y2="1">
    <stop offset="0%" stop-color="#f2f4f9" />
    <stop offset="100%" stop-color="#aeb7cc" />
  </linearGradient>
  <linearGradient id="mist" x1="0" y1="0" x2="0.3" y2="1">
    <stop offset="0%" stop-color="#d0d7e6" />
    <stop offset="100%" stop-color="#aeb7cc" />
  </linearGradient>
  <radialGradient id="glow" cx="50%" cy="50%">
    <stop offset="0%" stop-color="#ffffff" stop-opacity="0.55" />
    <stop offset="100%" stop-color="#ffffff" stop-opacity="0" />
  </radialGradient></defs>
  
  <rect width="1400" height="800" fill="url(#night)" />
  <ellipse cx="770.0000000000001" cy="256" rx="840" ry="112.00000000000001" fill="rgba(255,255,255,0.09)" transform="rotate(-14 770.0000000000001 256)" />
  <circle cx="1209.8" cy="171.7" r="1.31" fill="#fff" opacity="0.40" /><circle cx="759.2" cy="485.9" r="0.84" fill="#fff" opacity="0.80" /><circle cx="309.8" cy="555.2" r="1.34" fill="#fff" opacity="0.43" /><circle cx="895.0" cy="353.4" r="1.57" fill="#fff" opacity="0.33" /><circle cx="1119.8" cy="260.6" r="1.09" fill="#fff" opacity="0.62" /><circle cx="1251.0" cy="551.0" r="1.07" fill="#fff" opacity="0.76" /><circle cx="161.1" cy="332.3" r="0.43" fill="#fff" opacity="0.88" /><circle cx="110.6" cy="505.4" r="0.85" fill="#fff" opacity="0.29" /><circle cx="1102.7" cy="114.7" r="0.50" fill="#fff" opacity="0.48" /><circle cx="494.6" cy="579.1" r="1.56" fill="#fff" opacity="0.71" /><circle cx="1300.5" cy="453.6" r="1.57" fill="#fff" opacity="0.84" /><circle cx="769.2" cy="11.4" r="1.83" fill="#fff" opacity="0.51" /><circle cx="1173.2" cy="537.1" r="1.88" fill="#fff" opacity="0.56" /><circle cx="1090.5" cy="19.8" r="1.67" fill="#fff" opacity="0.46" /><circle cx="16.3" cy="537.4" r="1.10" fill="#fff" opacity="0.70" /><circle cx="487.2" cy="541.2" r="1.47" fill="#fff" opacity="0.70" /><circle cx="653.0" cy="451.4" r="1.20" fill="#fff" opacity="0.27" /><circle cx="1380.3" cy="213.1" r="2.06" fill="#fff" opacity="0.44" /><circle cx="522.8" cy="262.6" r="1.17" fill="#fff" opacity="0.61" /><circle cx="540.9" cy="235.0" r="2.14" fill="#fff" opacity="0.41" /><circle cx="8.0" cy="141.8" r="1.69" fill="#fff" opacity="0.53" /><circle cx="84.6" cy="589.5" r="2.14" fill="#fff" opacity="0.88" /><circle cx="1397.1" cy="48.7" r="1.82" fill="#fff" opacity="0.45" /><circle cx="704.2" cy="143.8" r="1.87" fill="#fff" opacity="0.34" /><circle cx="1286.1" cy="13.1" r="0.41" fill="#fff" opacity="0.81" /><circle cx="939.9" cy="630.4" r="1.03" fill="#fff" opacity="0.28" /><circle cx="217.1" cy="456.0" r="1.93" fill="#fff" opacity="0.31" /><circle cx="1086.0" cy="429.1" r="0.70" fill="#fff" opacity="0.80" /><circle cx="154.4" cy="630.8" r="1.91" fill="#fff" opacity="0.40" /><circle cx="536.5" cy="547.6" r="0.41" fill="#fff" opacity="0.89" /><circle cx="998.5" cy="305.1" r="2.05" fill="#fff" opacity="0.42" /><circle cx="1167.3" cy="403.2" r="1.73" fill="#fff" opacity="0.85" /><circle cx="336.9" cy="201.1" r="1.22" fill="#fff" opacity="0.43" /><circle cx="1356.1" cy="43.6" r="1.92" fill="#fff" opacity="0.86" /><circle cx="633.0" cy="557.5" r="1.83" fill="#fff" opacity="0.30" /><circle cx="239.6" cy="488.8" r="1.33" fill="#fff" opacity="0.31" /><circle cx="52.0" cy="370.6" r="1.05" fill="#fff" opacity="0.87" /><circle cx="1008.9" cy="271.6" r="0.95" fill="#fff" opacity="0.40" /><circle cx="524.9" cy="515.3" r="1.02" fill="#fff" opacity="0.70" /><circle cx="641.4" cy="339.5" r="0.96" fill="#fff" opacity="0.32" /><circle cx="849.7" cy="506.7" r="2.04" fill="#fff" opacity="0.44" /><circle cx="1071.3" cy="35.4" r="2.11" fill="#fff" opacity="0.30" /><circle cx="29.5" cy="421.1" r="0.47" fill="#fff" opacity="0.72" /><circle cx="1196.4" cy="159.3" r="0.95" fill="#fff" opacity="0.36" /><circle cx="1049.5" cy="297.4" r="1.93" fill="#fff" opacity="0.67" /><circle cx="523.5" cy="309.2" r="2.18" fill="#fff" opacity="0.32" /><circle cx="1090.0" cy="218.3" r="1.37" fill="#fff" opacity="0.45" /><circle cx="450.7" cy="102.8" r="1.54" fill="#fff" opacity="0.31" /><circle cx="377.9" cy="431.3" r="1.99" fill="#fff" opacity="0.88" /><circle cx="387.1" cy="438.2" r="1.97" fill="#fff" opacity="0.55" /><circle cx="275.2" cy="230.6" r="0.85" fill="#fff" opacity="0.83" /><circle cx="1310.4" cy="315.5" r="2.10" fill="#fff" opacity="0.93" /><circle cx="405.4" cy="77.6" r="0.84" fill="#fff" opacity="0.81" /><circle cx="1361.9" cy="98.0" r="1.88" fill="#fff" opacity="0.49" /><circle cx="417.0" cy="562.7" r="1.97" fill="#fff" opacity="0.74" /><circle cx="278.9" cy="333.2" r="2.10" fill="#fff" opacity="0.27" /><circle cx="784.6" cy="126.2" r="0.87" fill="#fff" opacity="0.53" /><circle cx="64.4" cy="614.7" r="1.19" fill="#fff" opacity="0.38" /><circle cx="1247.8" cy="499.8" r="2.16" fill="#fff" opacity="0.36" /><circle cx="494.8" cy="402.6" r="2.18" fill="#fff" opacity="0.54" /><circle cx="1087.3" cy="27.5" r="2.01" fill="#fff" opacity="0.30" /><circle cx="664.7" cy="525.4" r="0.78" fill="#fff" opacity="0.35" /><circle cx="1238.3" cy="467.5" r="1.45" fill="#fff" opacity="0.34" /><circle cx="969.1" cy="240.8" r="1.52" fill="#fff" opacity="0.28" /><circle cx="1242.1" cy="392.7" r="1.00" fill="#fff" opacity="0.42" /><circle cx="1323.8" cy="97.4" r="0.63" fill="#fff" opacity="0.29" /><circle cx="834.6" cy="152.4" r="1.62" fill="#fff" opacity="0.95" /><circle cx="1222.6" cy="355.7" r="0.66" fill="#fff" opacity="0.51" /><circle cx="572.2" cy="473.5" r="1.35" fill="#fff" opacity="0.42" /><circle cx="231.9" cy="89.1" r="0.76" fill="#fff" opacity="0.39" /><circle cx="95.8" cy="461.5" r="1.88" fill="#fff" opacity="0.58" /><circle cx="323.6" cy="165.6" r="0.73" fill="#fff" opacity="0.42" /><circle cx="1032.2" cy="122.2" r="1.80" fill="#fff" opacity="0.31" /><circle cx="244.9" cy="509.0" r="0.50" fill="#fff" opacity="0.36" /><circle cx="532.0" cy="362.5" r="1.63" fill="#fff" opacity="0.51" /><circle cx="125.6" cy="599.8" r="0.84" fill="#fff" opacity="0.72" /><circle cx="646.4" cy="471.8" r="0.88" fill="#fff" opacity="0.48" /><circle cx="923.0" cy="16.6" r="1.26" fill="#fff" opacity="0.67" /><circle cx="1340.8" cy="123.5" r="1.51" fill="#fff" opacity="0.52" /><circle cx="104.3" cy="297.8" r="0.91" fill="#fff" opacity="0.72" /><circle cx="945.8" cy="135.9" r="1.58" fill="#fff" opacity="0.82" /><circle cx="367.0" cy="442.0" r="2.17" fill="#fff" opacity="0.32" /><circle cx="1245.9" cy="73.6" r="0.79" fill="#fff" opacity="0.25" /><circle cx="595.5" cy="129.9" r="0.88" fill="#fff" opacity="0.30" /><circle cx="405.8" cy="368.8" r="1.52" fill="#fff" opacity="0.64" /><circle cx="1256.8" cy="425.6" r="1.06" fill="#fff" opacity="0.91" /><circle cx="333.9" cy="2.4" r="2.00" fill="#fff" opacity="0.39" /><circle cx="432.4" cy="37.3" r="1.72" fill="#fff" opacity="0.48" /><circle cx="483.6" cy="625.3" r="1.18" fill="#fff" opacity="0.60" /><circle cx="88.4" cy="578.9" r="0.94" fill="#fff" opacity="0.91" /><circle cx="491.8" cy="479.8" r="1.12" fill="#fff" opacity="0.49" /><circle cx="183.1" cy="351.3" r="1.01" fill="#fff" opacity="0.47" /><circle cx="455.6" cy="520.8" r="1.31" fill="#fff" opacity="0.49" /><circle cx="211.5" cy="323.6" r="1.92" fill="#fff" opacity="0.43" /><circle cx="245.0" cy="336.9" r="1.22" fill="#fff" opacity="0.91" /><circle cx="1188.3" cy="554.3" r="1.23" fill="#fff" opacity="0.37" /><circle cx="655.2" cy="511.6" r="2.12" fill="#fff" opacity="0.53" /><circle cx="1067.1" cy="492.4" r="0.49" fill="#fff" opacity="0.38" /><circle cx="794.3" cy="544.8" r="0.84" fill="#fff" opacity="0.62" /><circle cx="398.5" cy="598.9" r="1.70" fill="#fff" opacity="0.31" /><circle cx="110.1" cy="14.2" r="0.76" fill="#fff" opacity="0.48" /><circle cx="24.7" cy="168.2" r="1.31" fill="#fff" opacity="0.26" /><circle cx="853.6" cy="415.8" r="0.44" fill="#fff" opacity="0.51" /><circle cx="611.9" cy="308.8" r="1.41" fill="#fff" opacity="0.32" /><circle cx="1179.9" cy="6.1" r="1.24" fill="#fff" opacity="0.26" /><circle cx="1220.3" cy="565.0" r="2.04" fill="#fff" opacity="0.80" /><circle cx="1287.4" cy="202.5" r="1.57" fill="#fff" opacity="0.53" /><circle cx="1111.5" cy="57.9" r="1.85" fill="#fff" opacity="0.95" /><circle cx="193.5" cy="505.2" r="1.11" fill="#fff" opacity="0.49" /><circle cx="593.4" cy="587.0" r="1.50" fill="#fff" opacity="0.36" /><circle cx="1348.4" cy="498.2" r="0.72" fill="#fff" opacity="0.90" /><circle cx="902.7" cy="171.0" r="0.84" fill="#fff" opacity="0.95" /><circle cx="486.4" cy="610.2" r="1.46" fill="#fff" opacity="0.26" /><circle cx="324.8" cy="69.3" r="0.76" fill="#fff" opacity="0.36" /><circle cx="514.6" cy="356.7" r="1.12" fill="#fff" opacity="0.61" /><circle cx="551.0" cy="323.3" r="0.66" fill="#fff" opacity="0.71" /><circle cx="238.8" cy="460.3" r="0.70" fill="#fff" opacity="0.53" /><circle cx="873.9" cy="457.5" r="0.48" fill="#fff" opacity="0.30" /><circle cx="327.4" cy="532.6" r="1.14" fill="#fff" opacity="0.77" /><circle cx="1219.2" cy="220.8" r="1.97" fill="#fff" opacity="0.70" /><circle cx="1312.6" cy="635.3" r="1.03" fill="#fff" opacity="0.46" /><circle cx="16.4" cy="367.9" r="1.98" fill="#fff" opacity="0.37" /><circle cx="628.7" cy="321.1" r="0.73" fill="#fff" opacity="0.32" /><circle cx="905.3" cy="280.2" r="1.15" fill="#fff" opacity="0.66" /><circle cx="1288.9" cy="275.7" r="2.17" fill="#fff" opacity="0.79" /><circle cx="281.8" cy="107.3" r="1.01" fill="#fff" opacity="0.66" /><circle cx="1398.3" cy="158.1" r="0.58" fill="#fff" opacity="0.74" /><circle cx="479.6" cy="388.5" r="2.13" fill="#fff" opacity="0.84" /><circle cx="905.7" cy="322.6" r="0.67" fill="#fff" opacity="0.92" /><circle cx="990.6" cy="433.4" r="1.39" fill="#fff" opacity="0.34" /><circle cx="391.8" cy="379.8" r="1.42" fill="#fff" opacity="0.34" /><circle cx="1322.2" cy="583.6" r="1.20" fill="#fff" opacity="0.46" /><circle cx="295.6" cy="357.7" r="1.66" fill="#fff" opacity="0.86" /><circle cx="92.2" cy="34.1" r="1.60" fill="#fff" opacity="0.27" /><circle cx="577.9" cy="623.3" r="1.32" fill="#fff" opacity="0.47" /><circle cx="161.1" cy="454.0" r="0.65" fill="#fff" opacity="0.45" /><circle cx="822.6" cy="563.4" r="1.85" fill="#fff" opacity="0.44" /><circle cx="202.1" cy="48.3" r="1.22" fill="#fff" opacity="0.82" /><circle cx="775.6" cy="506.3" r="0.42" fill="#fff" opacity="0.43" /><circle cx="708.8" cy="458.7" r="0.75" fill="#fff" opacity="0.42" /><circle cx="1320.4" cy="482.7" r="1.40" fill="#fff" opacity="0.50" /><circle cx="639.6" cy="265.3" r="1.90" fill="#fff" opacity="0.33" /><circle cx="292.3" cy="307.2" r="1.84" fill="#fff" opacity="0.86" /><circle cx="100.6" cy="47.5" r="0.76" fill="#fff" opacity="0.71" /><circle cx="1329.4" cy="339.2" r="1.30" fill="#fff" opacity="0.76" /><circle cx="665.1" cy="445.2" r="1.25" fill="#fff" opacity="0.56" /><circle cx="760.9" cy="364.7" r="1.97" fill="#fff" opacity="0.83" /><circle cx="531.6" cy="260.6" r="1.78" fill="#fff" opacity="0.81" /><circle cx="134.1" cy="437.1" r="0.76" fill="#fff" opacity="0.30" /><circle cx="1317.9" cy="358.6" r="0.94" fill="#fff" opacity="0.29" />
  <path d="M0 624 L420 528 L770.0000000000001 640 L1400 496 L1400 800 L0 800 Z" fill="rgba(8,10,28,0.92)" />
</svg>
